<?xml version="1.0" encoding="UTF-8" standalone="no"?>
<svg
   xmlns:dc="http://purl.org/dc/elements/1.1/"
   xmlns:cc="http://creativecommons.org/ns#"
   xmlns:rdf="http://www.w3.org/1999/02/22-rdf-syntax-ns#"
   xmlns:svg="http://www.w3.org/2000/svg"
   xmlns="http://www.w3.org/2000/svg"
   id="svg8"
   version="1.1"
   viewBox="0 0 210 297"
   height="297mm"
   width="210mm">
  <defs
     id="defs2" />
  <metadata
     id="metadata5">
    <rdf:RDF>
      <cc:Work
         rdf:about="">
        <dc:format>image/svg+xml</dc:format>
        <dc:type
           rdf:resource="http://purl.org/dc/dcmitype/StillImage" />
        <dc:title></dc:title>
      </cc:Work>
    </rdf:RDF>
  </metadata>
  <g
     id="layer1">
    <ellipse
       ry="65.76786"
       rx="66.145836"
       cy="156.39285"
       cx="114.52679"
       id="path10"
       style="fill:#00ffff;stroke-width:0.26458332" />
    <text
       transform="scale(0.7964241,1.2556124)"
       id="text14"
       y="146.23305"
       x="-37.63876"
       style="font-style:normal;font-variant:normal;font-weight:bold;font-stretch:normal;font-size:50.67177963px;line-height:1.25;font-family:sans-serif;-inkscape-font-specification:'sans-serif Bold';letter-spacing:0px;word-spacing:0px;fill:#000000;fill-opacity:1;stroke:none;stroke-width:1.26679444"
       xml:space="preserve"><tspan
         style="stroke-width:1.26679444"
         y="146.23305"
         x="-37.63876"
         id="tspan12">MAC</tspan></text>
    <g
       style="fill:#00ffff"
       id="g18">
      <path
         points="84.666667,187.99799 105.69353,181.37151 105.69353,141.857 84.666667,140.51786 "
         d="m 84.666667,140.51786 v 47.48013 l 21.026863,-6.62648 V 141.857 Z"
         style="fill:#353564;fill-rule:evenodd;stroke:none;stroke-linejoin:round"
         id="path20" />
      <path
         points="125.48809,207.04167 144.92984,193.57431 105.69353,181.37151 84.666667,187.99799 "
         d="m 84.666667,187.99799 40.821423,19.04368 19.44175,-13.46736 -39.23631,-12.2028 z"
         style="fill:#afafde;fill-rule:evenodd;stroke:none;stroke-linejoin:round"
         id="path28" />
      <path
         points="144.92984,139.39094 144.92984,193.57431 105.69353,181.37151 105.69353,141.857 "
         d="m 105.69353,141.857 39.23631,-2.46606 v 54.18337 l -39.23631,-12.2028 z"
         style="fill:#e9e9ff;fill-rule:evenodd;stroke:none;stroke-linejoin:round"
         id="path30" />
      <path
         points="125.48809,136.66932 144.92984,139.39094 105.69353,141.857 84.666667,140.51786 "
         d="m 84.666667,140.51786 40.821423,-3.84854 19.44175,2.72162 -39.23631,2.46606 z"
         style="fill:#4d4d9f;fill-rule:evenodd;stroke:none;stroke-linejoin:round"
         id="path22" />
      <path
         points="125.48809,207.04167 144.92984,193.57431 144.92984,139.39094 125.48809,136.66932 "
         d="m 125.48809,136.66932 v 70.37235 l 19.44175,-13.46736 v -54.18337 z"
         style="fill:#d7d7ff;fill-rule:evenodd;stroke:none;stroke-linejoin:round"
         id="path26" />
      <path
         points="125.48809,136.66932 125.48809,207.04167 84.666667,187.99799 84.666667,140.51786 "
         d="m 84.666667,140.51786 40.821423,-3.84854 v 70.37235 L 84.666667,187.99799 Z"
         style="fill:#8686bf;fill-rule:evenodd;stroke:none;stroke-linejoin:round"
         id="path24" />
    </g>
    <text
       transform="scale(0.82180392,1.2168353)"
       id="text34"
       y="140.5508"
       x="101.39458"
       style="font-style:normal;font-variant:normal;font-weight:bold;font-stretch:normal;font-size:10.62613869px;line-height:1.25;font-family:sans-serif;-inkscape-font-specification:'sans-serif Bold';letter-spacing:0px;word-spacing:0px;fill:#000000;fill-opacity:1;stroke:none;stroke-width:0.26565346"
       xml:space="preserve"><tspan
         style="stroke-width:0.26565346"
         y="140.5508"
         x="101.39458"
         id="tspan32">Hoja de Vida</tspan></text>
  </g>
</svg>
